<svg xmlns="http://www.w3.org/2000/svg" width="30" height="30" viewBox="0 0 30 30"><g fill="none" fill-rule="evenodd"><rect width="30" height="30" fill="#60D387" rx="15"/><path fill="#FAFBFC" fill-rule="nonzero" d="M15 7c-4.4 0-8 3.6-8 8s3.6 8 8 8 8-3.6 8-8-3.6-8-8-8zm0 14c-1.5 0-2.8-.5-3.9-1.4.6-.8.7-1.8.1-2.6-.5-.7-1.3-1.4-1.3-2 0-.8 1.9-1.1 2.5-1.9.7-.8 0-2.3-.7-3.1.8-.5 1.7-.9 2.8-1 .2.5.9 1.1 1.2 1.5.5.8.6 1.3 1.3 1.3.2 0 2 0 3-.3.6 1 1 2.2 1 3.5 0 3.3-2.7 6-6 6z"/><path fill="#FAFBFC" fill-rule="nonzero" d="M17.2 13.7c-1.2 0-2.3.8-2.2 1.9.3 2.5-.5 3.4.6 3.9 1.3.5 3.9-1.9 3.8-3.9 0-1.1-.9-1.9-2.2-1.9z"/></g></svg>